<?xml version="1.0" encoding="UTF-8" standalone="no"?>
<!DOCTYPE svg PUBLIC "-//W3C//DTD SVG 1.1//EN"
 "http://www.w3.org/Graphics/SVG/1.1/DTD/svg11.dtd">
<!-- Generated by graphviz version 2.43.0 (0)
 -->
<!-- Title: %3 Pages: 1 -->
<svg width="514pt" height="192pt"
 viewBox="0.00 0.00 514.00 192.00" xmlns="http://www.w3.org/2000/svg" xmlns:xlink="http://www.w3.org/1999/xlink">
<g id="graph0" class="graph" transform="scale(1 1) rotate(0) translate(4 188)">
<title>%3</title>
<polygon fill="white" stroke="transparent" points="-4,4 -4,-188 510,-188 510,4 -4,4"/>
<!-- X1 -->
<g id="node1" class="node">
<title>X1</title>
<polygon fill="white" stroke="transparent" points="54,-152 0,-152 0,-14 54,-14 54,-152"/>
<polygon fill="none" stroke="black" points="8,-129 8,-152 47,-152 47,-129 8,-129"/>
<text text-anchor="start" x="19" y="-136.8" font-family="arial" font-size="14.00">X1</text>
<polygon fill="none" stroke="black" points="8,-106 8,-129 47,-129 47,-106 8,-106"/>
<text text-anchor="start" x="12" y="-113.8" font-family="arial" font-size="14.00">4&#45;pin</text>
<polygon fill="none" stroke="black" points="8,-83 8,-106 47,-106 47,-83 8,-83"/>
<text text-anchor="start" x="23.5" y="-90.8" font-family="arial" font-size="14.00">1</text>
<polygon fill="none" stroke="black" points="8,-60 8,-83 47,-83 47,-60 8,-60"/>
<text text-anchor="start" x="23.5" y="-67.8" font-family="arial" font-size="14.00">2</text>
<polygon fill="none" stroke="black" points="8,-37 8,-60 47,-60 47,-37 8,-37"/>
<text text-anchor="start" x="23.5" y="-44.8" font-family="arial" font-size="14.00">3</text>
<polygon fill="none" stroke="black" points="8,-14 8,-37 47,-37 47,-14 8,-14"/>
<text text-anchor="start" x="23.5" y="-21.8" font-family="arial" font-size="14.00">4</text>
</g>
<!-- W1 -->
<g id="node3" class="node">
<title>W1</title>
<polygon fill="none" stroke="black" points="308,-184 198,-184 198,0 308,0 308,-184"/>
<polygon fill="none" stroke="black" points="198,-161 198,-184 308,-184 308,-161 198,-161"/>
<text text-anchor="start" x="242" y="-168.8" font-family="arial" font-size="14.00">W1</text>
<polygon fill="none" stroke="black" points="198,-138 198,-161 249,-161 249,-138 198,-138"/>
<text text-anchor="start" x="216" y="-145.8" font-family="arial" font-size="14.00">4x</text>
<polygon fill="none" stroke="black" points="249,-138 249,-161 308,-161 308,-138 249,-138"/>
<text text-anchor="start" x="266.5" y="-145.8" font-family="arial" font-size="14.00">1 m</text>
<text text-anchor="start" x="212" y="-124.8" font-family="arial" font-size="14.00"> </text>
<text text-anchor="start" x="200" y="-105.8" font-family="arial" font-size="14.00">X1:1</text>
<text text-anchor="start" x="232" y="-105.8" font-family="arial" font-size="14.00"> &#160;&#160;&#160;&#160;1 &#160;&#160;&#160;</text>
<text text-anchor="start" x="278" y="-105.8" font-family="arial" font-size="14.00">X2:1</text>
<polygon fill="#000000" stroke="transparent" points="198,-98 198,-100 308,-100 308,-98 198,-98"/>
<polygon fill="#ffffff" stroke="transparent" points="198,-96 198,-98 308,-98 308,-96 198,-96"/>
<polygon fill="#000000" stroke="transparent" points="198,-94 198,-96 308,-96 308,-94 198,-94"/>
<text text-anchor="start" x="200" y="-80.8" font-family="arial" font-size="14.00">X1:2</text>
<text text-anchor="start" x="232" y="-80.8" font-family="arial" font-size="14.00"> &#160;&#160;&#160;&#160;2 &#160;&#160;&#160;</text>
<text text-anchor="start" x="278" y="-80.8" font-family="arial" font-size="14.00">X2:2</text>
<polygon fill="#000000" stroke="transparent" points="198,-73 198,-75 308,-75 308,-73 198,-73"/>
<polygon fill="#ffffff" stroke="transparent" points="198,-71 198,-73 308,-73 308,-71 198,-71"/>
<polygon fill="#000000" stroke="transparent" points="198,-69 198,-71 308,-71 308,-69 198,-69"/>
<text text-anchor="start" x="200" y="-55.8" font-family="arial" font-size="14.00">X1:3</text>
<text text-anchor="start" x="232" y="-55.8" font-family="arial" font-size="14.00"> &#160;&#160;&#160;&#160;3 &#160;&#160;&#160;</text>
<text text-anchor="start" x="278" y="-55.8" font-family="arial" font-size="14.00">X2:3</text>
<polygon fill="#000000" stroke="transparent" points="198,-48 198,-50 308,-50 308,-48 198,-48"/>
<polygon fill="#ffffff" stroke="transparent" points="198,-46 198,-48 308,-48 308,-46 198,-46"/>
<polygon fill="#000000" stroke="transparent" points="198,-44 198,-46 308,-46 308,-44 198,-44"/>
<text text-anchor="start" x="200" y="-30.8" font-family="arial" font-size="14.00">X1:4</text>
<text text-anchor="start" x="232" y="-30.8" font-family="arial" font-size="14.00"> &#160;&#160;&#160;&#160;4 &#160;&#160;&#160;</text>
<text text-anchor="start" x="278" y="-30.8" font-family="arial" font-size="14.00">X2:4</text>
<polygon fill="#000000" stroke="transparent" points="198,-23 198,-25 308,-25 308,-23 198,-23"/>
<polygon fill="#ffffff" stroke="transparent" points="198,-21 198,-23 308,-23 308,-21 198,-21"/>
<polygon fill="#000000" stroke="transparent" points="198,-19 198,-21 308,-21 308,-19 198,-19"/>
<text text-anchor="start" x="212" y="-5.8" font-family="arial" font-size="14.00"> </text>
</g>
<!-- X1&#45;&#45;W1 -->
<g id="edge1" class="edge">
<title>X1:e&#45;&#45;W1:w</title>
<path fill="none" stroke="#000000" stroke-width="2" d="M48,-93C114.91,-93.01 131.57,-95.01 198,-95"/>
<path fill="none" stroke="#ffffff" stroke-width="2" d="M48,-95C114.67,-95 131.33,-97 198,-97"/>
<path fill="none" stroke="#000000" stroke-width="2" d="M48,-97C114.43,-96.99 131.09,-98.99 198,-99"/>
</g>
<!-- X1&#45;&#45;W1 -->
<g id="edge3" class="edge">
<title>X1:e&#45;&#45;W1:w</title>
<path fill="none" stroke="#000000" stroke-width="2" d="M48,-69C114.79,-69 131.45,-70 198,-70"/>
<path fill="none" stroke="#ffffff" stroke-width="2" d="M48,-71C114.67,-71 131.33,-72 198,-72"/>
<path fill="none" stroke="#000000" stroke-width="2" d="M48,-73C114.55,-73 131.21,-74 198,-74"/>
</g>
<!-- X1&#45;&#45;W1 -->
<g id="edge5" class="edge">
<title>X1:e&#45;&#45;W1:w</title>
<path fill="none" stroke="#000000" stroke-width="2" d="M48,-46C114.55,-46 131.21,-45 198,-45"/>
<path fill="none" stroke="#ffffff" stroke-width="2" d="M48,-48C114.67,-48 131.33,-47 198,-47"/>
<path fill="none" stroke="#000000" stroke-width="2" d="M48,-50C114.79,-50 131.45,-49 198,-49"/>
</g>
<!-- X1&#45;&#45;W1 -->
<g id="edge7" class="edge">
<title>X1:e&#45;&#45;W1:w</title>
<path fill="none" stroke="#000000" stroke-width="2" d="M48,-23C114.33,-23.03 130.97,-20.03 198,-20"/>
<path fill="none" stroke="#ffffff" stroke-width="2" d="M48,-25C114.68,-25 131.32,-22 198,-22"/>
<path fill="none" stroke="#000000" stroke-width="2" d="M48,-27C115.03,-26.97 131.67,-23.97 198,-24"/>
</g>
<!-- X2 -->
<g id="node2" class="node">
<title>X2</title>
<polygon fill="white" stroke="transparent" points="506,-152 452,-152 452,-14 506,-14 506,-152"/>
<polygon fill="none" stroke="black" points="460,-129 460,-152 499,-152 499,-129 460,-129"/>
<text text-anchor="start" x="471" y="-136.8" font-family="arial" font-size="14.00">X2</text>
<polygon fill="none" stroke="black" points="460,-106 460,-129 499,-129 499,-106 460,-106"/>
<text text-anchor="start" x="464" y="-113.8" font-family="arial" font-size="14.00">4&#45;pin</text>
<polygon fill="none" stroke="black" points="460,-83 460,-106 499,-106 499,-83 460,-83"/>
<text text-anchor="start" x="475.5" y="-90.8" font-family="arial" font-size="14.00">1</text>
<polygon fill="none" stroke="black" points="460,-60 460,-83 499,-83 499,-60 460,-60"/>
<text text-anchor="start" x="475.5" y="-67.8" font-family="arial" font-size="14.00">2</text>
<polygon fill="none" stroke="black" points="460,-37 460,-60 499,-60 499,-37 460,-37"/>
<text text-anchor="start" x="475.5" y="-44.8" font-family="arial" font-size="14.00">3</text>
<polygon fill="none" stroke="black" points="460,-14 460,-37 499,-37 499,-14 460,-14"/>
<text text-anchor="start" x="475.5" y="-21.8" font-family="arial" font-size="14.00">4</text>
</g>
<!-- W1&#45;&#45;X2 -->
<g id="edge2" class="edge">
<title>W1:e&#45;&#45;X2:w</title>
<path fill="none" stroke="#000000" stroke-width="2" d="M308,-95C374.88,-95.01 391.65,-93.01 459,-93"/>
<path fill="none" stroke="#ffffff" stroke-width="2" d="M308,-97C375.12,-97 391.88,-95 459,-95"/>
<path fill="none" stroke="#000000" stroke-width="2" d="M308,-99C375.35,-98.99 392.12,-96.99 459,-97"/>
</g>
<!-- W1&#45;&#45;X2 -->
<g id="edge4" class="edge">
<title>W1:e&#45;&#45;X2:w</title>
<path fill="none" stroke="#000000" stroke-width="2" d="M308,-70C374.99,-70 391.77,-69 459,-69"/>
<path fill="none" stroke="#ffffff" stroke-width="2" d="M308,-72C375.11,-72 391.89,-71 459,-71"/>
<path fill="none" stroke="#000000" stroke-width="2" d="M308,-74C375.23,-74 392.01,-73 459,-73"/>
</g>
<!-- W1&#45;&#45;X2 -->
<g id="edge6" class="edge">
<title>W1:e&#45;&#45;X2:w</title>
<path fill="none" stroke="#000000" stroke-width="2" d="M308,-45C375.23,-45 392.01,-46 459,-46"/>
<path fill="none" stroke="#ffffff" stroke-width="2" d="M308,-47C375.11,-47 391.89,-48 459,-48"/>
<path fill="none" stroke="#000000" stroke-width="2" d="M308,-49C374.99,-49 391.77,-50 459,-50"/>
</g>
<!-- W1&#45;&#45;X2 -->
<g id="edge8" class="edge">
<title>W1:e&#45;&#45;X2:w</title>
<path fill="none" stroke="#000000" stroke-width="2" d="M308,-20C375.48,-20.03 392.23,-23.03 459,-23"/>
<path fill="none" stroke="#ffffff" stroke-width="2" d="M308,-22C375.12,-22 391.88,-25 459,-25"/>
<path fill="none" stroke="#000000" stroke-width="2" d="M308,-24C374.77,-23.97 391.52,-26.97 459,-27"/>
</g>
</g>
</svg>
