<?xml version="1.0" encoding="UTF-8" standalone="no"?>
<!DOCTYPE svg PUBLIC "-//W3C//DTD SVG 1.1//EN"
 "http://www.w3.org/Graphics/SVG/1.1/DTD/svg11.dtd">
<!-- Generated by graphviz version 2.43.0 (0)
 -->
<!-- Title: %3 Pages: 1 -->
<svg width="867pt" height="562pt"
 viewBox="0.00 0.00 867.00 561.50" xmlns="http://www.w3.org/2000/svg" xmlns:xlink="http://www.w3.org/1999/xlink">
<g id="graph0" class="graph" transform="scale(1 1) rotate(0) translate(4 557.5)">
<title>%3</title>
<polygon fill="white" stroke="transparent" points="-4,4 -4,-557.5 863,-557.5 863,4 -4,4"/>
<!-- X1 -->
<g id="node1" class="node">
<title>X1</title>
<polygon fill="white" stroke="transparent" points="182,-416.5 0,-416.5 0,-209.5 182,-209.5 182,-416.5"/>
<polygon fill="none" stroke="black" points="0,-393 0,-416 182,-416 182,-393 0,-393"/>
<text text-anchor="start" x="82.5" y="-400.8" font-family="arial" font-size="14.00">X1</text>
<polygon fill="none" stroke="black" points="0,-370 0,-393 182,-393 182,-370 0,-370"/>
<text text-anchor="start" x="38.5" y="-377.8" font-family="arial" font-size="14.00">Molex: 22013047</text>
<polygon fill="none" stroke="black" points="0,-347 0,-370 93,-370 93,-347 0,-347"/>
<text text-anchor="start" x="4" y="-354.8" font-family="arial" font-size="14.00">Molex KK 254</text>
<polygon fill="none" stroke="black" points="93,-347 93,-370 143,-370 143,-347 93,-347"/>
<text text-anchor="start" x="97" y="-354.8" font-family="arial" font-size="14.00">female</text>
<polygon fill="none" stroke="black" points="143,-347 143,-370 182,-370 182,-347 143,-347"/>
<text text-anchor="start" x="147" y="-354.8" font-family="arial" font-size="14.00">4&#45;pin</text>
<polygon fill="none" stroke="black" points="0,-324 0,-347 182,-347 182,-324 0,-324"/>
<text text-anchor="start" x="87" y="-331.8" font-family="arial" font-size="14.00">1</text>
<polygon fill="none" stroke="black" points="0,-301 0,-324 182,-324 182,-301 0,-301"/>
<text text-anchor="start" x="87" y="-308.8" font-family="arial" font-size="14.00">2</text>
<polygon fill="none" stroke="black" points="0,-278 0,-301 182,-301 182,-278 0,-278"/>
<text text-anchor="start" x="87" y="-285.8" font-family="arial" font-size="14.00">3</text>
<polygon fill="none" stroke="black" points="0,-255 0,-278 182,-278 182,-255 0,-255"/>
<text text-anchor="start" x="87" y="-262.8" font-family="arial" font-size="14.00">4</text>
<polygon fill="none" stroke="black" points="0,-232 0,-255 182,-255 182,-232 0,-232"/>
<text text-anchor="start" x="22" y="-239.8" font-family="arial" font-size="14.00">Additional components</text>
<polygon fill="none" stroke="black" points="0,-209 0,-232 182,-232 182,-209 0,-209"/>
<text text-anchor="start" x="4" y="-216.8" font-family="arial" font-size="14.00">4 x #4 (Crimp)</text>
</g>
<!-- W1 -->
<g id="node4" class="node">
<title>W1</title>
<polygon fill="none" stroke="black" points="525,-553.5 326,-553.5 326,-346.5 525,-346.5 525,-553.5"/>
<polygon fill="none" stroke="black" points="326.5,-530 326.5,-553 525.5,-553 525.5,-530 326.5,-530"/>
<text text-anchor="start" x="415" y="-537.8" font-family="arial" font-size="14.00">W1</text>
<polygon fill="none" stroke="black" points="326.5,-507 326.5,-530 400.5,-530 400.5,-507 326.5,-507"/>
<text text-anchor="start" x="330.5" y="-514.8" font-family="arial" font-size="14.00">P/N: CAB1</text>
<polygon fill="none" stroke="black" points="400.5,-507 400.5,-530 525.5,-530 525.5,-507 400.5,-507"/>
<text text-anchor="start" x="404.5" y="-514.8" font-family="arial" font-size="14.00">CablesCo: ABC123</text>
<polygon fill="none" stroke="black" points="326.5,-484 326.5,-507 375.5,-507 375.5,-484 326.5,-484"/>
<text text-anchor="start" x="343.5" y="-491.8" font-family="arial" font-size="14.00">4x</text>
<polygon fill="none" stroke="black" points="375.5,-484 375.5,-507 468.5,-507 468.5,-484 375.5,-484"/>
<text text-anchor="start" x="392.5" y="-491.8" font-family="arial" font-size="14.00">0.25 mm²</text>
<polygon fill="none" stroke="black" points="468.5,-484 468.5,-507 525.5,-507 525.5,-484 468.5,-484"/>
<text text-anchor="start" x="485" y="-491.8" font-family="arial" font-size="14.00">1 m</text>
<text text-anchor="start" x="351" y="-470.8" font-family="arial" font-size="14.00"> </text>
<text text-anchor="start" x="339" y="-451.8" font-family="arial" font-size="14.00">X1:1</text>
<text text-anchor="start" x="394" y="-451.8" font-family="arial" font-size="14.00"> &#160;&#160;&#160;&#160;1:BN &#160;&#160;&#160;</text>
<text text-anchor="start" x="485" y="-451.8" font-family="arial" font-size="14.00">X2:1</text>
<polygon fill="#000000" stroke="transparent" points="326.5,-444 326.5,-446 525.5,-446 525.5,-444 326.5,-444"/>
<polygon fill="#895956" stroke="transparent" points="326.5,-442 326.5,-444 525.5,-444 525.5,-442 326.5,-442"/>
<polygon fill="#000000" stroke="transparent" points="326.5,-440 326.5,-442 525.5,-442 525.5,-440 326.5,-440"/>
<text text-anchor="start" x="339" y="-426.8" font-family="arial" font-size="14.00">X1:2</text>
<text text-anchor="start" x="393.5" y="-426.8" font-family="arial" font-size="14.00"> &#160;&#160;&#160;&#160;2:RD &#160;&#160;&#160;</text>
<text text-anchor="start" x="485" y="-426.8" font-family="arial" font-size="14.00">X2:2</text>
<polygon fill="#000000" stroke="transparent" points="326.5,-419 326.5,-421 525.5,-421 525.5,-419 326.5,-419"/>
<polygon fill="#ff0000" stroke="transparent" points="326.5,-417 326.5,-419 525.5,-419 525.5,-417 326.5,-417"/>
<polygon fill="#000000" stroke="transparent" points="326.5,-415 326.5,-417 525.5,-417 525.5,-415 326.5,-415"/>
<text text-anchor="start" x="339" y="-401.8" font-family="arial" font-size="14.00">X1:3</text>
<text text-anchor="start" x="392" y="-401.8" font-family="arial" font-size="14.00"> &#160;&#160;&#160;&#160;3:OG &#160;&#160;&#160;</text>
<text text-anchor="start" x="485" y="-401.8" font-family="arial" font-size="14.00">X2:3</text>
<polygon fill="#000000" stroke="transparent" points="326.5,-394 326.5,-396 525.5,-396 525.5,-394 326.5,-394"/>
<polygon fill="#ff8000" stroke="transparent" points="326.5,-392 326.5,-394 525.5,-394 525.5,-392 326.5,-392"/>
<polygon fill="#000000" stroke="transparent" points="326.5,-390 326.5,-392 525.5,-392 525.5,-390 326.5,-390"/>
<text text-anchor="start" x="339" y="-376.8" font-family="arial" font-size="14.00">X1:4</text>
<text text-anchor="start" x="394" y="-376.8" font-family="arial" font-size="14.00"> &#160;&#160;&#160;&#160;4:YE &#160;&#160;&#160;</text>
<text text-anchor="start" x="485" y="-376.8" font-family="arial" font-size="14.00">X2:4</text>
<polygon fill="#000000" stroke="transparent" points="326.5,-369 326.5,-371 525.5,-371 525.5,-369 326.5,-369"/>
<polygon fill="#ffff00" stroke="transparent" points="326.5,-367 326.5,-369 525.5,-369 525.5,-367 326.5,-367"/>
<polygon fill="#000000" stroke="transparent" points="326.5,-365 326.5,-367 525.5,-367 525.5,-365 326.5,-365"/>
<text text-anchor="start" x="351" y="-351.8" font-family="arial" font-size="14.00"> </text>
</g>
<!-- X1&#45;&#45;W1 -->
<g id="edge1" class="edge">
<title>X1:e&#45;&#45;W1:w</title>
<path fill="none" stroke="#000000" stroke-width="2" d="M182,-334C263.71,-336.29 248.25,-443.29 326,-441"/>
<path fill="none" stroke="#895956" stroke-width="2" d="M182,-336C261.73,-336 246.27,-443 326,-443"/>
<path fill="none" stroke="#000000" stroke-width="2" d="M182,-338C259.75,-335.71 244.29,-442.71 326,-445"/>
</g>
<!-- X1&#45;&#45;W1 -->
<g id="edge3" class="edge">
<title>X1:e&#45;&#45;W1:w</title>
<path fill="none" stroke="#000000" stroke-width="2" d="M182,-310C263.45,-312.28 248.51,-418.28 326,-416"/>
<path fill="none" stroke="#ff0000" stroke-width="2" d="M182,-312C261.47,-312 246.53,-418 326,-418"/>
<path fill="none" stroke="#000000" stroke-width="2" d="M182,-314C259.49,-311.72 244.55,-417.72 326,-420"/>
</g>
<!-- X1&#45;&#45;W1 -->
<g id="edge5" class="edge">
<title>X1:e&#45;&#45;W1:w</title>
<path fill="none" stroke="#000000" stroke-width="2" d="M182,-287C262.93,-289.26 249.04,-393.26 326,-391"/>
<path fill="none" stroke="#ff8000" stroke-width="2" d="M182,-289C260.95,-289 247.05,-393 326,-393"/>
<path fill="none" stroke="#000000" stroke-width="2" d="M182,-291C258.96,-288.74 245.07,-392.74 326,-395"/>
</g>
<!-- X1&#45;&#45;W1 -->
<g id="edge7" class="edge">
<title>X1:e&#45;&#45;W1:w</title>
<path fill="none" stroke="#000000" stroke-width="2" d="M182,-264C262.41,-266.25 249.56,-368.25 326,-366"/>
<path fill="none" stroke="#ffff00" stroke-width="2" d="M182,-266C260.43,-266 247.57,-368 326,-368"/>
<path fill="none" stroke="#000000" stroke-width="2" d="M182,-268C258.44,-265.75 245.59,-367.75 326,-370"/>
</g>
<!-- W2 -->
<g id="node5" class="node">
<title>W2</title>
<polygon fill="white" stroke="black" stroke-dasharray="5,2" points="521.5,-322 329.5,-322 329.5,0 521.5,0 521.5,-322"/>
<polygon fill="none" stroke="black" points="329.5,-299 329.5,-322 521.5,-322 521.5,-299 329.5,-299"/>
<text text-anchor="start" x="414.5" y="-306.8" font-family="arial" font-size="14.00">W2</text>
<polygon fill="none" stroke="black" points="329.5,-276 329.5,-299 376.5,-299 376.5,-276 329.5,-276"/>
<text text-anchor="start" x="345.5" y="-283.8" font-family="arial" font-size="14.00">4x</text>
<polygon fill="none" stroke="black" points="376.5,-276 376.5,-299 466.5,-299 466.5,-276 376.5,-276"/>
<text text-anchor="start" x="392" y="-283.8" font-family="arial" font-size="14.00">0.25 mm²</text>
<polygon fill="none" stroke="black" points="466.5,-276 466.5,-299 521.5,-299 521.5,-276 466.5,-276"/>
<text text-anchor="start" x="482" y="-283.8" font-family="arial" font-size="14.00">1 m</text>
<text text-anchor="start" x="361" y="-262.8" font-family="arial" font-size="14.00"> </text>
<text text-anchor="start" x="349" y="-243.8" font-family="arial" font-size="14.00">X1:1</text>
<text text-anchor="start" x="408" y="-243.8" font-family="arial" font-size="14.00"> &#160;&#160;&#160;&#160;YE &#160;&#160;&#160;</text>
<text text-anchor="start" x="482.5" y="-243.8" font-family="arial" font-size="14.00">X3:1</text>
<polygon fill="#000000" stroke="transparent" points="329.5,-236 329.5,-238 521.5,-238 521.5,-236 329.5,-236"/>
<polygon fill="#ffff00" stroke="transparent" points="329.5,-234 329.5,-236 521.5,-236 521.5,-234 329.5,-234"/>
<polygon fill="#000000" stroke="transparent" points="329.5,-232 329.5,-234 521.5,-234 521.5,-232 329.5,-232"/>
<text text-anchor="start" x="334" y="-216.8" font-family="arial" font-size="14.00">P/N: WIRE1</text>
<text text-anchor="start" x="413" y="-216.8" font-family="arial" font-size="14.00">WiresCo: W1&#45;YE</text>
<text text-anchor="start" x="349" y="-195.8" font-family="arial" font-size="14.00">X1:2</text>
<text text-anchor="start" x="408" y="-195.8" font-family="arial" font-size="14.00"> &#160;&#160;&#160;&#160;BK &#160;&#160;&#160;</text>
<text text-anchor="start" x="482.5" y="-195.8" font-family="arial" font-size="14.00">X3:2</text>
<polygon fill="#000000" stroke="transparent" points="329.5,-188 329.5,-190 521.5,-190 521.5,-188 329.5,-188"/>
<polygon fill="#000000" stroke="transparent" points="329.5,-186 329.5,-188 521.5,-188 521.5,-186 329.5,-186"/>
<polygon fill="#000000" stroke="transparent" points="329.5,-184 329.5,-186 521.5,-186 521.5,-184 329.5,-184"/>
<text text-anchor="start" x="334" y="-168.8" font-family="arial" font-size="14.00">P/N: WIRE2</text>
<text text-anchor="start" x="413" y="-168.8" font-family="arial" font-size="14.00">WiresCo: W1&#45;BK</text>
<text text-anchor="start" x="349" y="-147.8" font-family="arial" font-size="14.00">X1:3</text>
<text text-anchor="start" x="408" y="-147.8" font-family="arial" font-size="14.00"> &#160;&#160;&#160;&#160;BK &#160;&#160;&#160;</text>
<text text-anchor="start" x="482.5" y="-147.8" font-family="arial" font-size="14.00">X3:3</text>
<polygon fill="#000000" stroke="transparent" points="329.5,-140 329.5,-142 521.5,-142 521.5,-140 329.5,-140"/>
<polygon fill="#000000" stroke="transparent" points="329.5,-138 329.5,-140 521.5,-140 521.5,-138 329.5,-138"/>
<polygon fill="#000000" stroke="transparent" points="329.5,-136 329.5,-138 521.5,-138 521.5,-136 329.5,-136"/>
<text text-anchor="start" x="334" y="-120.8" font-family="arial" font-size="14.00">P/N: WIRE2</text>
<text text-anchor="start" x="413" y="-120.8" font-family="arial" font-size="14.00">WiresCo: W1&#45;BK</text>
<text text-anchor="start" x="349" y="-99.8" font-family="arial" font-size="14.00">X1:4</text>
<text text-anchor="start" x="407" y="-99.8" font-family="arial" font-size="14.00"> &#160;&#160;&#160;&#160;RD &#160;&#160;&#160;</text>
<text text-anchor="start" x="482.5" y="-99.8" font-family="arial" font-size="14.00">X3:4</text>
<polygon fill="#000000" stroke="transparent" points="329.5,-92 329.5,-94 521.5,-94 521.5,-92 329.5,-92"/>
<polygon fill="#ff0000" stroke="transparent" points="329.5,-90 329.5,-92 521.5,-92 521.5,-90 329.5,-90"/>
<polygon fill="#000000" stroke="transparent" points="329.5,-88 329.5,-90 521.5,-90 521.5,-88 329.5,-88"/>
<text text-anchor="start" x="333.5" y="-72.8" font-family="arial" font-size="14.00">P/N: WIRE3</text>
<text text-anchor="start" x="411.5" y="-72.8" font-family="arial" font-size="14.00">WiresCo: W1&#45;RD</text>
<text text-anchor="start" x="361" y="-51.8" font-family="arial" font-size="14.00"> </text>
<polygon fill="none" stroke="black" points="329.5,-23 329.5,-46 521.5,-46 521.5,-23 329.5,-23"/>
<text text-anchor="start" x="356.5" y="-30.8" font-family="arial" font-size="14.00">Additional components</text>
<polygon fill="none" stroke="black" points="329.5,0 329.5,-23 521.5,-23 521.5,0 329.5,0"/>
<text text-anchor="start" x="333.5" y="-7.8" font-family="arial" font-size="14.00">1 m x #6 (Sleve)</text>
</g>
<!-- X1&#45;&#45;W2 -->
<g id="edge9" class="edge">
<title>X1:e&#45;&#45;W2:w</title>
<path fill="none" stroke="#000000" stroke-width="2" d="M182,-334C259.1,-336.23 247.43,-235.23 328.5,-233"/>
<path fill="none" stroke="#ffff00" stroke-width="2" d="M182,-336C261.09,-336 249.41,-235 328.5,-235"/>
<path fill="none" stroke="#000000" stroke-width="2" d="M182,-338C263.07,-335.77 251.4,-234.77 328.5,-237"/>
</g>
<!-- X1&#45;&#45;W2 -->
<g id="edge11" class="edge">
<title>X1:e&#45;&#45;W2:w</title>
<path fill="none" stroke="#000000" stroke-width="2" d="M182,-310C265.63,-312.39 240.95,-187.39 328.5,-185"/>
<path fill="none" stroke="#000000" stroke-width="2" d="M182,-312C267.59,-312 242.91,-187 328.5,-187"/>
<path fill="none" stroke="#000000" stroke-width="2" d="M182,-314C269.55,-311.61 244.87,-186.61 328.5,-189"/>
</g>
<!-- X1&#45;&#45;W2 -->
<g id="edge13" class="edge">
<title>X1:e&#45;&#45;W2:w</title>
<path fill="none" stroke="#000000" stroke-width="2" d="M182,-287C273.25,-289.51 233.38,-139.51 328.5,-137"/>
<path fill="none" stroke="#000000" stroke-width="2" d="M182,-289C275.19,-289 235.31,-139 328.5,-139"/>
<path fill="none" stroke="#000000" stroke-width="2" d="M182,-291C277.12,-288.49 237.25,-138.49 328.5,-141"/>
</g>
<!-- X1&#45;&#45;W2 -->
<g id="edge15" class="edge">
<title>X1:e&#45;&#45;W2:w</title>
<path fill="none" stroke="#000000" stroke-width="2" d="M182,-264C281.53,-266.61 225.16,-91.61 328.5,-89"/>
<path fill="none" stroke="#ff0000" stroke-width="2" d="M182,-266C283.43,-266 227.07,-91 328.5,-91"/>
<path fill="none" stroke="#000000" stroke-width="2" d="M182,-268C285.34,-265.39 228.97,-90.39 328.5,-93"/>
</g>
<!-- X2 -->
<g id="node2" class="node">
<title>X2</title>
<polygon fill="white" stroke="transparent" points="859,-521.5 669,-521.5 669,-314.5 859,-314.5 859,-521.5"/>
<polygon fill="none" stroke="black" points="669,-498 669,-521 859,-521 859,-498 669,-498"/>
<text text-anchor="start" x="755.5" y="-505.8" font-family="arial" font-size="14.00">X2</text>
<polygon fill="none" stroke="black" points="669,-475 669,-498 746,-498 746,-475 669,-475"/>
<text text-anchor="start" x="673" y="-482.8" font-family="arial" font-size="14.00">P/N: CON4</text>
<polygon fill="none" stroke="black" points="746,-475 746,-498 859,-498 859,-475 746,-475"/>
<text text-anchor="start" x="750" y="-482.8" font-family="arial" font-size="14.00">Molex: 22013047</text>
<polygon fill="none" stroke="black" points="669,-452 669,-475 765,-475 765,-452 669,-452"/>
<text text-anchor="start" x="674.5" y="-459.8" font-family="arial" font-size="14.00">Molex KK 254</text>
<polygon fill="none" stroke="black" points="765,-452 765,-475 818,-475 818,-452 765,-452"/>
<text text-anchor="start" x="770.5" y="-459.8" font-family="arial" font-size="14.00">female</text>
<polygon fill="none" stroke="black" points="818,-452 818,-475 859,-475 859,-452 818,-452"/>
<text text-anchor="start" x="823" y="-459.8" font-family="arial" font-size="14.00">4&#45;pin</text>
<polygon fill="none" stroke="black" points="669,-429 669,-452 859,-452 859,-429 669,-429"/>
<text text-anchor="start" x="760" y="-436.8" font-family="arial" font-size="14.00">1</text>
<polygon fill="none" stroke="black" points="669,-406 669,-429 859,-429 859,-406 669,-406"/>
<text text-anchor="start" x="760" y="-413.8" font-family="arial" font-size="14.00">2</text>
<polygon fill="none" stroke="black" points="669,-383 669,-406 859,-406 859,-383 669,-383"/>
<text text-anchor="start" x="760" y="-390.8" font-family="arial" font-size="14.00">3</text>
<polygon fill="none" stroke="black" points="669,-360 669,-383 859,-383 859,-360 669,-360"/>
<text text-anchor="start" x="760" y="-367.8" font-family="arial" font-size="14.00">4</text>
<polygon fill="none" stroke="black" points="669,-337 669,-360 859,-360 859,-337 669,-337"/>
<text text-anchor="start" x="695" y="-344.8" font-family="arial" font-size="14.00">Additional components</text>
<polygon fill="none" stroke="black" points="669,-314 669,-337 859,-337 859,-314 669,-314"/>
<text text-anchor="start" x="673" y="-321.8" font-family="arial" font-size="14.00">4 x #4 (Crimp)</text>
</g>
<!-- X3 -->
<g id="node3" class="node">
<title>X3</title>
<polygon fill="white" stroke="transparent" points="855,-278.5 673,-278.5 673,-71.5 855,-71.5 855,-278.5"/>
<polygon fill="none" stroke="black" points="673,-255 673,-278 855,-278 855,-255 673,-255"/>
<text text-anchor="start" x="755.5" y="-262.8" font-family="arial" font-size="14.00">X3</text>
<polygon fill="none" stroke="black" points="673,-232 673,-255 855,-255 855,-232 673,-232"/>
<text text-anchor="start" x="711.5" y="-239.8" font-family="arial" font-size="14.00">Molex: 22013047</text>
<polygon fill="none" stroke="black" points="673,-209 673,-232 766,-232 766,-209 673,-209"/>
<text text-anchor="start" x="677" y="-216.8" font-family="arial" font-size="14.00">Molex KK 254</text>
<polygon fill="none" stroke="black" points="766,-209 766,-232 816,-232 816,-209 766,-209"/>
<text text-anchor="start" x="770" y="-216.8" font-family="arial" font-size="14.00">female</text>
<polygon fill="none" stroke="black" points="816,-209 816,-232 855,-232 855,-209 816,-209"/>
<text text-anchor="start" x="820" y="-216.8" font-family="arial" font-size="14.00">4&#45;pin</text>
<polygon fill="none" stroke="black" points="673,-186 673,-209 855,-209 855,-186 673,-186"/>
<text text-anchor="start" x="760" y="-193.8" font-family="arial" font-size="14.00">1</text>
<polygon fill="none" stroke="black" points="673,-163 673,-186 855,-186 855,-163 673,-163"/>
<text text-anchor="start" x="760" y="-170.8" font-family="arial" font-size="14.00">2</text>
<polygon fill="none" stroke="black" points="673,-140 673,-163 855,-163 855,-140 673,-140"/>
<text text-anchor="start" x="760" y="-147.8" font-family="arial" font-size="14.00">3</text>
<polygon fill="none" stroke="black" points="673,-117 673,-140 855,-140 855,-117 673,-117"/>
<text text-anchor="start" x="760" y="-124.8" font-family="arial" font-size="14.00">4</text>
<polygon fill="none" stroke="black" points="673,-94 673,-117 855,-117 855,-94 673,-94"/>
<text text-anchor="start" x="695" y="-101.8" font-family="arial" font-size="14.00">Additional components</text>
<polygon fill="none" stroke="black" points="673,-71 673,-94 855,-94 855,-71 673,-71"/>
<text text-anchor="start" x="677" y="-78.8" font-family="arial" font-size="14.00">4 x #4 (Crimp)</text>
</g>
<!-- W1&#45;&#45;X2 -->
<g id="edge2" class="edge">
<title>W1:e&#45;&#45;X2:w</title>
<path fill="none" stroke="#000000" stroke-width="2" d="M525,-441C588.76,-441.02 604.75,-439.02 669,-439"/>
<path fill="none" stroke="#895956" stroke-width="2" d="M525,-443C589.01,-443 604.99,-441 669,-441"/>
<path fill="none" stroke="#000000" stroke-width="2" d="M525,-445C589.25,-444.98 605.24,-442.98 669,-443"/>
</g>
<!-- W1&#45;&#45;X2 -->
<g id="edge4" class="edge">
<title>W1:e&#45;&#45;X2:w</title>
<path fill="none" stroke="#000000" stroke-width="2" d="M525,-416C588.88,-416 604.87,-415 669,-415"/>
<path fill="none" stroke="#ff0000" stroke-width="2" d="M525,-418C589,-418 605,-417 669,-417"/>
<path fill="none" stroke="#000000" stroke-width="2" d="M525,-420C589.13,-420 605.12,-419 669,-419"/>
</g>
<!-- W1&#45;&#45;X2 -->
<g id="edge6" class="edge">
<title>W1:e&#45;&#45;X2:w</title>
<path fill="none" stroke="#000000" stroke-width="2" d="M525,-391C589.13,-391 605.12,-392 669,-392"/>
<path fill="none" stroke="#ff8000" stroke-width="2" d="M525,-393C589,-393 605,-394 669,-394"/>
<path fill="none" stroke="#000000" stroke-width="2" d="M525,-395C588.88,-395 604.87,-396 669,-396"/>
</g>
<!-- W1&#45;&#45;X2 -->
<g id="edge8" class="edge">
<title>W1:e&#45;&#45;X2:w</title>
<path fill="none" stroke="#000000" stroke-width="2" d="M525,-366C589.38,-366.03 605.36,-369.03 669,-369"/>
<path fill="none" stroke="#ffff00" stroke-width="2" d="M525,-368C589.01,-368 604.99,-371 669,-371"/>
<path fill="none" stroke="#000000" stroke-width="2" d="M525,-370C588.64,-369.97 604.62,-372.97 669,-373"/>
</g>
<!-- W2&#45;&#45;X3 -->
<g id="edge10" class="edge">
<title>W2:e&#45;&#45;X3:w</title>
<path fill="none" stroke="#000000" stroke-width="2" d="M522.5,-233C589.06,-234.36 601.66,-197.36 672,-196"/>
<path fill="none" stroke="#ffff00" stroke-width="2" d="M522.5,-235C590.95,-235 603.55,-198 672,-198"/>
<path fill="none" stroke="#000000" stroke-width="2" d="M522.5,-237C592.84,-235.64 605.44,-198.64 672,-200"/>
</g>
<!-- W2&#45;&#45;X3 -->
<g id="edge12" class="edge">
<title>W2:e&#45;&#45;X3:w</title>
<path fill="none" stroke="#000000" stroke-width="2" d="M522.5,-185C587.94,-185.44 604.05,-172.44 672,-172"/>
<path fill="none" stroke="#000000" stroke-width="2" d="M522.5,-187C589.2,-187 605.3,-174 672,-174"/>
<path fill="none" stroke="#000000" stroke-width="2" d="M522.5,-189C590.45,-188.56 606.56,-175.56 672,-176"/>
</g>
<!-- W2&#45;&#45;X3 -->
<g id="edge14" class="edge">
<title>W2:e&#45;&#45;X3:w</title>
<path fill="none" stroke="#000000" stroke-width="2" d="M522.5,-137C590.35,-137.39 606.53,-149.39 672,-149"/>
<path fill="none" stroke="#000000" stroke-width="2" d="M522.5,-139C589.16,-139 605.34,-151 672,-151"/>
<path fill="none" stroke="#000000" stroke-width="2" d="M522.5,-141C587.97,-140.61 604.15,-152.61 672,-153"/>
</g>
<!-- W2&#45;&#45;X3 -->
<g id="edge16" class="edge">
<title>W2:e&#45;&#45;X3:w</title>
<path fill="none" stroke="#000000" stroke-width="2" d="M522.5,-89C592.84,-90.36 605.44,-127.36 672,-126"/>
<path fill="none" stroke="#ff0000" stroke-width="2" d="M522.5,-91C590.95,-91 603.55,-128 672,-128"/>
<path fill="none" stroke="#000000" stroke-width="2" d="M522.5,-93C589.06,-91.64 601.66,-128.64 672,-130"/>
</g>
</g>
</svg>
